<svg width="18" height="19" viewBox="0 0 18 19" fill="none" xmlns="http://www.w3.org/2000/svg">
<g id="Feather Icons / briefcase">
<path id="Vector" d="M15 5.75H3C2.17157 5.75 1.5 6.42157 1.5 7.25V14.75C1.5 15.5784 2.17157 16.25 3 16.25H15C15.8284 16.25 16.5 15.5784 16.5 14.75V7.25C16.5 6.42157 15.8284 5.75 15 5.75Z" stroke="#9F9BB9" stroke-width="2" stroke-linecap="round" stroke-linejoin="round"/>
<path id="Vector_2" d="M12 16.25V4.25C12 3.85218 11.842 3.47064 11.5607 3.18934C11.2794 2.90804 10.8978 2.75 10.5 2.75H7.5C7.10218 2.75 6.72064 2.90804 6.43934 3.18934C6.15804 3.47064 6 3.85218 6 4.25V16.25" stroke="#9F9BB9" stroke-width="2" stroke-linecap="round" stroke-linejoin="round"/>
</g>
</svg>
