<svg width="20" height="21" viewBox="0 0 20 21" fill="none" xmlns="http://www.w3.org/2000/svg">
<g id="Phosphor Icons / ChatText">
<path id="Vector" d="M6.09375 15.9766L3.52344 18.1328C3.43238 18.2082 3.32183 18.2561 3.20461 18.2712C3.08738 18.2863 2.96829 18.2678 2.86115 18.2179C2.75401 18.168 2.66321 18.0887 2.59929 17.9893C2.53536 17.8899 2.50094 17.7744 2.5 17.6563V5.25C2.5 5.08424 2.56585 4.92527 2.68306 4.80806C2.80027 4.69085 2.95924 4.625 3.125 4.625H16.875C17.0408 4.625 17.1997 4.69085 17.3169 4.80806C17.4342 4.92527 17.5 5.08424 17.5 5.25V15.25C17.5 15.4158 17.4342 15.5747 17.3169 15.6919C17.1997 15.8092 17.0408 15.875 16.875 15.875H6.38281L6.09375 15.9766Z" stroke="black" stroke-width="2" stroke-linecap="round" stroke-linejoin="round"/>
<path id="Vector_2" d="M7.5 9H12.5" stroke="black" stroke-width="2" stroke-linecap="round" stroke-linejoin="round"/>
<path id="Vector_3" d="M7.5 11.5H12.5" stroke="black" stroke-width="2" stroke-linecap="round" stroke-linejoin="round"/>
</g>
</svg>
