<svg width="32" height="33" viewBox="0 0 32 33" fill="none" xmlns="http://www.w3.org/2000/svg">
<g id="Phosphor Icons / DotsThree">
<path id="Vector" d="M14.5 16.75C14.5 17.5784 15.1716 18.25 16 18.25C16.8284 18.25 17.5 17.5784 17.5 16.75C17.5 15.9216 16.8284 15.25 16 15.25C15.1716 15.25 14.5 15.9216 14.5 16.75Z" fill="black"/>
<path id="Vector_2" d="M14.5 24.75C14.5 25.5784 15.1716 26.25 16 26.25C16.8284 26.25 17.5 25.5784 17.5 24.75C17.5 23.9216 16.8284 23.25 16 23.25C15.1716 23.25 14.5 23.9216 14.5 24.75Z" fill="black"/>
<path id="Vector_3" d="M14.5 8.75C14.5 9.57843 15.1716 10.25 16 10.25C16.8284 10.25 17.5 9.57843 17.5 8.75C17.5 7.92157 16.8284 7.25 16 7.25C15.1716 7.25 14.5 7.92157 14.5 8.75Z" fill="black"/>
</g>
</svg>
