<svg width="12" height="12" viewBox="0 0 12 12" fill="none" xmlns="http://www.w3.org/2000/svg">
<g id="history-outline">
<path id="Union" d="M6.35219 1.50001C4.40231 1.50001 2.7264 2.66431 2.03771 4.32072L1.76332 3.84507C1.69156 3.7122 1.54961 3.63051 1.39604 3.63412C1.25304 3.63723 1.12218 3.71426 1.05198 3.83627C0.981801 3.9588 0.982857 4.10821 1.0541 4.22971L1.79708 5.53257C1.90473 5.71921 2.14378 5.78849 2.33744 5.68974L3.65877 5.02797C3.75956 4.98299 3.8366 4.89976 3.87301 4.79739C3.90942 4.69554 3.90151 4.58335 3.85137 4.48666C3.80124 4.3905 3.71312 4.31812 3.60758 4.28658C3.50204 4.25556 3.38806 4.26745 3.2915 4.32071L2.80602 4.56474C3.38648 3.23393 4.75427 2.29409 6.3521 2.29409C8.47975 2.29409 10.1894 3.95155 10.1894 5.99997C10.1894 8.0484 8.47975 9.70586 6.3521 9.70586C4.53205 9.70586 3.01554 8.48211 2.61608 6.85206C2.56384 6.63854 2.34485 6.5067 2.12638 6.5584C1.90844 6.60958 1.77441 6.82465 1.82665 7.03818C2.31371 9.024 4.16112 10.5 6.35213 10.5C8.91193 10.5 11 8.48374 11 6C11 3.51626 8.91199 1.50001 6.35219 1.50001ZM6.40284 3.4771C6.29467 3.47813 6.19177 3.52156 6.11631 3.59756C6.04085 3.67356 5.99969 3.77645 6.0018 3.88243V6.00007C6.0018 6.12054 6.05773 6.23479 6.15377 6.31028L7.50466 7.36911C7.58909 7.43476 7.69622 7.46527 7.8028 7.45338C7.90993 7.442 8.00754 7.38927 8.07509 7.30706C8.14211 7.22486 8.17324 7.11938 8.1611 7.01496C8.14949 6.91001 8.09567 6.81436 8.01124 6.7487L6.81232 5.80982V3.88249C6.81496 3.77496 6.77274 3.67103 6.69517 3.59452C6.61813 3.51852 6.5126 3.47607 6.40284 3.4771Z" fill="#BCB0F5"/>
</g>
</svg>
