<svg width="20" height="20" viewBox="0 0 20 20" fill="none" xmlns="http://www.w3.org/2000/svg">
<g id="Feather Icons / image">
<path id="Vector" d="M15.8333 2.5H4.16667C3.24619 2.5 2.5 3.24619 2.5 4.16667V15.8333C2.5 16.7538 3.24619 17.5 4.16667 17.5H15.8333C16.7538 17.5 17.5 16.7538 17.5 15.8333V4.16667C17.5 3.24619 16.7538 2.5 15.8333 2.5Z" stroke="#A82525" stroke-width="2" stroke-linecap="round" stroke-linejoin="round"/>
<path id="Vector_2" d="M7.08325 8.33331C7.77361 8.33331 8.33325 7.77367 8.33325 7.08331C8.33325 6.39296 7.77361 5.83331 7.08325 5.83331C6.3929 5.83331 5.83325 6.39296 5.83325 7.08331C5.83325 7.77367 6.3929 8.33331 7.08325 8.33331Z" stroke="#A82525" stroke-width="2" stroke-linecap="round" stroke-linejoin="round"/>
<path id="Vector_3" d="M17.5001 12.5L13.3334 8.33331L4.16675 17.5" stroke="#A82525" stroke-width="2" stroke-linecap="round" stroke-linejoin="round"/>
</g>
</svg>
