<svg width="20" height="21" viewBox="0 0 20 21" fill="none" xmlns="http://www.w3.org/2000/svg">
<g id="Phosphor Icons / ShareNetwork">
<path id="Vector" d="M5 12.75C6.38071 12.75 7.5 11.6307 7.5 10.25C7.5 8.86929 6.38071 7.75 5 7.75C3.61929 7.75 2.5 8.86929 2.5 10.25C2.5 11.6307 3.61929 12.75 5 12.75Z" stroke="black" stroke-width="2" stroke-linecap="round" stroke-linejoin="round"/>
<path id="Vector_2" d="M13.75 18.375C15.1307 18.375 16.25 17.2557 16.25 15.875C16.25 14.4943 15.1307 13.375 13.75 13.375C12.3693 13.375 11.25 14.4943 11.25 15.875C11.25 17.2557 12.3693 18.375 13.75 18.375Z" stroke="black" stroke-width="2" stroke-linecap="round" stroke-linejoin="round"/>
<path id="Vector_3" d="M13.75 7.125C15.1307 7.125 16.25 6.00571 16.25 4.625C16.25 3.24429 15.1307 2.125 13.75 2.125C12.3693 2.125 11.25 3.24429 11.25 4.625C11.25 6.00571 12.3693 7.125 13.75 7.125Z" stroke="black" stroke-width="2" stroke-linecap="round" stroke-linejoin="round"/>
<path id="Vector_4" d="M11.6484 5.97656L7.10156 8.89844" stroke="black" stroke-width="2" stroke-linecap="round" stroke-linejoin="round"/>
<path id="Vector_5" d="M7.10156 11.6016L11.6484 14.5234" stroke="black" stroke-width="2" stroke-linecap="round" stroke-linejoin="round"/>
</g>
</svg>
