<svg width="20" height="21" viewBox="0 0 20 21" fill="none" xmlns="http://www.w3.org/2000/svg">
<g id="Phosphor Icons / Star">
<path id="Vector" d="M10.3439 15.1485L14.2814 17.6485C14.7892 17.9688 15.4142 17.4922 15.2657 16.9063L14.1251 12.4219C14.0943 12.2976 14.0992 12.1671 14.1393 12.0455C14.1793 11.9238 14.253 11.816 14.3517 11.7344L17.8829 8.78908C18.3439 8.40627 18.1095 7.63283 17.5079 7.59377L12.8986 7.29689C12.7728 7.28958 12.6519 7.24578 12.5506 7.17086C12.4493 7.09594 12.372 6.99314 12.3282 6.87502L10.6095 2.54689C10.564 2.42182 10.4811 2.31377 10.3721 2.23742C10.2631 2.16107 10.1332 2.12012 10.0001 2.12012C9.86702 2.12012 9.73715 2.16107 9.62814 2.23742C9.51912 2.31377 9.43624 2.42182 9.39074 2.54689L7.67199 6.87502C7.62819 6.99314 7.55092 7.09594 7.44964 7.17086C7.34836 7.24578 7.22745 7.28958 7.10168 7.29689L2.49231 7.59377C1.89074 7.63283 1.65637 8.40627 2.11731 8.78908L5.64856 11.7344C5.74726 11.816 5.82089 11.9238 5.86097 12.0455C5.90106 12.1671 5.90596 12.2976 5.87512 12.4219L4.82043 16.5781C4.64074 17.2813 5.39074 17.8516 5.99231 17.4688L9.65637 15.1485C9.75912 15.0831 9.87836 15.0484 10.0001 15.0484C10.1219 15.0484 10.2411 15.0831 10.3439 15.1485V15.1485Z" stroke="black" stroke-width="2" stroke-linecap="round" stroke-linejoin="round"/>
</g>
</svg>
