<svg width="20" height="21" viewBox="0 0 20 21" fill="none" xmlns="http://www.w3.org/2000/svg">
<g id="Phosphor Icons / ThumbsUp">
<path id="Vector" d="M2.5 8.375H6.25V16.5H2.5C2.33424 16.5 2.17527 16.4342 2.05806 16.3169C1.94085 16.1997 1.875 16.0408 1.875 15.875V9C1.875 8.83424 1.94085 8.67527 2.05806 8.55806C2.17527 8.44085 2.33424 8.375 2.5 8.375V8.375Z" stroke="black" stroke-width="2" stroke-linecap="round" stroke-linejoin="round"/>
<path id="Vector_2" d="M6.25 8.375L9.375 2.125C10.038 2.125 10.6739 2.38839 11.1428 2.85723C11.6116 3.32607 11.875 3.96196 11.875 4.625V6.5H16.7109C16.8882 6.49956 17.0635 6.53706 17.225 6.60997C17.3866 6.68288 17.5306 6.78953 17.6476 6.92273C17.7645 7.05593 17.8516 7.21262 17.9029 7.38226C17.9543 7.5519 17.9687 7.73056 17.9453 7.90625L17.0078 15.4062C16.9699 15.7073 16.8237 15.9843 16.5966 16.1856C16.3695 16.3868 16.0769 16.4986 15.7734 16.5H6.25" stroke="black" stroke-width="2" stroke-linecap="round" stroke-linejoin="round"/>
</g>
</svg>
