<svg width="13" height="14" viewBox="0 0 13 14" fill="none" xmlns="http://www.w3.org/2000/svg">
<path id="Union" fill-rule="evenodd" clip-rule="evenodd" d="M2.98111 4.88229C3.04633 4.10413 3.25156 3.12762 3.69797 2.27362C4.25818 1.20187 5.23538 0.270508 6.80176 0.270508C8.36905 0.270508 9.34079 1.20303 9.89359 2.27631C10.3332 3.12988 10.531 4.10541 10.5905 4.88321C11.8528 5.2374 12.7783 6.39661 12.7783 7.77197V10.9707C12.7783 12.6276 11.4352 13.9707 9.77832 13.9707H3.79004C2.13318 13.9707 0.790039 12.6276 0.790039 10.9707V7.77197C0.790039 6.39539 1.71719 5.23538 2.98111 4.88229ZM3.9967 4.77197C4.06927 4.13339 4.24747 3.38104 4.5842 2.73688C5.03152 1.88113 5.72076 1.27051 6.80176 1.27051C7.88177 1.27051 8.56461 1.87997 9.00458 2.73419C9.3367 3.37903 9.50912 4.13272 9.57648 4.77197H3.9967ZM7.60254 9.37158C7.60254 9.82355 7.23615 10.1899 6.78418 10.1899C6.33221 10.1899 5.96582 9.82355 5.96582 9.37158C5.96582 8.91962 6.33221 8.55322 6.78418 8.55322C7.23615 8.55322 7.60254 8.91962 7.60254 9.37158Z" fill="#0A66C2"/>
</svg>
